solid GNSS2_barometer_cover_pins
facet normal -1.1017407542128779e-30 1.922249341949809e-17 -1.0
  outer loop
    vertex -4.340209623309549 -3.565854589751118 1.4438228390645235e-15
    vertex -5.390209623309549 -3.665854589751118 1.4438228390645235e-15
    vertex -5.390209623309549 -3.565854589751118 1.4438228390645235e-15
  endloop
endfacet
facet normal -1.1017407542128779e-30 1.922249341949809e-17 -1.0
  outer loop
    vertex -5.390209623309549 -3.665854589751118 1.4438228390645235e-15
    vertex -4.340209623309549 -3.565854589751118 1.4438228390645235e-15
    vertex -4.090209623309548 -5.165854589751118 1.4438228390645235e-15
  endloop
endfacet
facet normal -1.1017407542128779e-30 1.922249341949809e-17 -1.0
  outer loop
    vertex -4.340209623309549 1.5341454102488816 1.4438228390645235e-15
    vertex -3.690209623309549 0.8341454102488812 4.6924242269597015e-15
    vertex -4.340209623309549 -3.565854589751118 1.4438228390645235e-15
  endloop
endfacet
facet normal -1.1017407542128779e-30 1.922249341949809e-17 -1.0
  outer loop
    vertex -3.690209623309549 0.8341454102488812 4.6924242269597015e-15
    vertex -4.340209623309549 1.5341454102488816 1.4438228390645235e-15
    vertex -1.8402096233095484 1.5341454102488816 1.4438228390645235e-15
  endloop
endfacet
facet normal -1.1017407542128779e-30 1.922249341949809e-17 -1.0
  outer loop
    vertex -4.340209623309549 -3.565854589751118 1.4438228390645235e-15
    vertex -3.690209623309549 0.8341454102488812 4.6924242269597015e-15
    vertex -4.090209623309548 -5.165854589751118 1.4438228390645235e-15
  endloop
endfacet
facet normal -1.1017407542128779e-30 1.922249341949809e-17 -1.0
  outer loop
    vertex -3.690209623309549 0.8341454102488812 4.6924242269597015e-15
    vertex -1.8402096233095484 1.5341454102488816 1.4438228390645235e-15
    vertex -2.4902096233095508 0.8341454102488812 4.6924242269597015e-15
  endloop
endfacet
facet normal -1.1017407542128779e-30 1.922249341949809e-17 -1.0
  outer loop
    vertex -2.4902096233095508 0.8341454102488812 4.6924242269597015e-15
    vertex -1.8402096233095484 1.5341454102488816 1.4438228390645235e-15
    vertex -2.4902096233095508 -5.165854589751118 4.6924242269597015e-15
  endloop
endfacet
facet normal -1.1017407542128779e-30 1.922249341949809e-17 -1.0
  outer loop
    vertex -2.4902096233095508 -5.165854589751118 4.6924242269597015e-15
    vertex -1.8402096233095484 1.5341454102488816 1.4438228390645235e-15
    vertex -2.0902096233095495 -5.165854589751118 1.4438228390645235e-15
  endloop
endfacet
facet normal -1.1017407542128779e-30 1.922249341949809e-17 -1.0
  outer loop
    vertex -2.0902096233095495 -5.165854589751118 1.4438228390645235e-15
    vertex -1.8402096233095484 1.5341454102488816 1.4438228390645235e-15
    vertex -1.8402096233095484 -3.565854589751118 1.4438228390645235e-15
  endloop
endfacet
facet normal -1.1017407542128779e-30 1.922249341949809e-17 -1.0
  outer loop
    vertex -2.0902096233095495 -5.165854589751118 1.4438228390645235e-15
    vertex -1.8402096233095484 -3.565854589751118 1.4438228390645235e-15
    vertex -0.7902096233095476 -3.665854589751118 1.4438228390645235e-15
  endloop
endfacet
facet normal -1.1017407542128779e-30 1.922249341949809e-17 -1.0
  outer loop
    vertex -0.7902096233095476 -3.665854589751118 1.4438228390645235e-15
    vertex -1.8402096233095484 -3.565854589751118 1.4438228390645235e-15
    vertex -0.7902096233095476 -3.565854589751118 1.4438228390645235e-15
  endloop
endfacet
facet normal -1.1017407542128779e-30 1.922249341949809e-17 -1.0
  outer loop
    vertex -3.690209623309549 -5.165854589751118 4.6924242269597015e-15
    vertex -4.090209623309548 -5.165854589751118 1.4438228390645235e-15
    vertex -3.690209623309549 0.8341454102488812 4.6924242269597015e-15
  endloop
endfacet
facet normal 0.7556890827898171 -0.6549305384178425 0.0
  outer loop
    vertex -0.7902096233095476 -3.665854589751118 1.4438228390645235e-15
    vertex -2.0902096233095495 -5.165854589751118 2.0000000000000013
    vertex -2.0902096233095495 -5.165854589751118 1.4438228390645235e-15
  endloop
endfacet
facet normal 0.7556890827898171 -0.6549305384178425 0.0
  outer loop
    vertex -2.0902096233095495 -5.165854589751118 2.0000000000000013
    vertex -0.7902096233095476 -3.665854589751118 1.4438228390645235e-15
    vertex -0.7902096233095476 -3.665854589751118 2.0000000000000013
  endloop
endfacet
facet normal -0.0 -1.0 -0.0
  outer loop
    vertex -2.4902096233095508 0.8341454102488812 2.0000000000000013
    vertex -3.690209623309549 0.8341454102488812 4.6924242269597015e-15
    vertex -2.4902096233095508 0.8341454102488812 4.6924242269597015e-15
  endloop
endfacet
facet normal -0.0 -1.0 -0.0
  outer loop
    vertex -3.690209623309549 0.8341454102488812 4.6924242269597015e-15
    vertex -2.4902096233095508 0.8341454102488812 2.0000000000000013
    vertex -3.690209623309549 0.8341454102488812 2.0000000000000013
  endloop
endfacet
facet normal 0.0 0.0 1.0
  outer loop
    vertex -4.090209623309548 -5.165854589751118 2.0000000000000013
    vertex -5.390209623309549 -3.565854589751118 2.0000000000000013
    vertex -5.390209623309549 -3.665854589751118 2.0000000000000013
  endloop
endfacet
facet normal 0.0 0.0 1.0
  outer loop
    vertex -5.390209623309549 -3.565854589751118 2.0000000000000013
    vertex -4.090209623309548 -5.165854589751118 2.0000000000000013
    vertex -4.340209623309549 -3.565854589751118 2.0000000000000013
  endloop
endfacet
facet normal 0.0 0.0 1.0
  outer loop
    vertex -4.340209623309549 -3.565854589751118 2.0000000000000013
    vertex -4.090209623309548 -5.165854589751118 2.0000000000000013
    vertex -4.340209623309549 1.5341454102488816 2.0000000000000013
  endloop
endfacet
facet normal 0.0 0.0 1.0
  outer loop
    vertex -4.340209623309549 1.5341454102488816 2.0000000000000013
    vertex -4.090209623309548 -5.165854589751118 2.0000000000000013
    vertex -3.690209623309549 0.8341454102488812 2.0000000000000013
  endloop
endfacet
facet normal 0.0 0.0 1.0
  outer loop
    vertex -4.340209623309549 1.5341454102488816 2.0000000000000013
    vertex -3.690209623309549 0.8341454102488812 2.0000000000000013
    vertex -2.4902096233095508 1.5341454102488816 2.0000000000000013
  endloop
endfacet
facet normal 0.0 0.0 1.0
  outer loop
    vertex -3.690209623309549 0.8341454102488812 2.0000000000000013
    vertex -4.090209623309548 -5.165854589751118 2.0000000000000013
    vertex -3.690209623309549 -5.165854589751118 2.0000000000000013
  endloop
endfacet
facet normal 0.0 0.0 1.0
  outer loop
    vertex -2.4902096233095508 1.5341454102488816 2.0000000000000013
    vertex -3.690209623309549 0.8341454102488812 2.0000000000000013
    vertex -2.4902096233095508 0.8341454102488812 2.0000000000000013
  endloop
endfacet
facet normal 1.0 0.0 0.0
  outer loop
    vertex -1.8402096233095484 1.5341454102488816 1.4438228390645235e-15
    vertex -1.8402096233095484 -3.565854589751118 2.0000000000000013
    vertex -1.8402096233095484 -3.565854589751118 1.4438228390645235e-15
  endloop
endfacet
facet normal 1.0 0.0 0.0
  outer loop
    vertex -1.8402096233095484 -3.565854589751118 2.0000000000000013
    vertex -1.8402096233095484 1.5341454102488816 1.4438228390645235e-15
    vertex -1.8402096233095484 1.5341454102488816 2.0000000000000013
  endloop
endfacet
facet normal 0.0 1.0 0.0
  outer loop
    vertex -4.340209623309549 1.5341454102488816 2.0000000000000013
    vertex -1.8402096233095484 1.5341454102488816 1.4438228390645235e-15
    vertex -4.340209623309549 1.5341454102488816 1.4438228390645235e-15
  endloop
endfacet
facet normal 0.0 1.0 0.0
  outer loop
    vertex -1.8402096233095484 1.5341454102488816 1.4438228390645235e-15
    vertex -4.340209623309549 1.5341454102488816 2.0000000000000013
    vertex -1.8402096233095484 1.5341454102488816 2.0000000000000013
  endloop
endfacet
facet normal 0.0 1.0 0.0
  outer loop
    vertex -1.8402096233095484 1.5341454102488816 2.0000000000000013
    vertex -4.340209623309549 1.5341454102488816 2.0000000000000013
    vertex -2.4902096233095508 1.5341454102488816 2.0000000000000013
  endloop
endfacet
facet normal -1.0 0.0 0.0
  outer loop
    vertex -4.340209623309549 1.5341454102488816 2.0000000000000013
    vertex -4.340209623309549 -3.565854589751118 1.4438228390645235e-15
    vertex -4.340209623309549 -3.565854589751118 2.0000000000000013
  endloop
endfacet
facet normal -1.0 0.0 0.0
  outer loop
    vertex -4.340209623309549 -3.565854589751118 1.4438228390645235e-15
    vertex -4.340209623309549 1.5341454102488816 2.0000000000000013
    vertex -4.340209623309549 1.5341454102488816 1.4438228390645235e-15
  endloop
endfacet
facet normal -0.7556890827898175 -0.6549305384178421 0.0
  outer loop
    vertex -5.390209623309549 -3.665854589751118 2.0000000000000013
    vertex -4.090209623309548 -5.165854589751118 1.4438228390645235e-15
    vertex -4.090209623309548 -5.165854589751118 2.0000000000000013
  endloop
endfacet
facet normal -0.7556890827898175 -0.6549305384178421 0.0
  outer loop
    vertex -4.090209623309548 -5.165854589751118 1.4438228390645235e-15
    vertex -5.390209623309549 -3.665854589751118 2.0000000000000013
    vertex -5.390209623309549 -3.665854589751118 1.4438228390645235e-15
  endloop
endfacet
facet normal 0.0 -1.0 0.0
  outer loop
    vertex -3.690209623309549 -5.165854589751118 4.6924242269597015e-15
    vertex -4.090209623309548 -5.165854589751118 2.0000000000000013
    vertex -4.090209623309548 -5.165854589751118 1.4438228390645235e-15
  endloop
endfacet
facet normal 0.0 -1.0 0.0
  outer loop
    vertex -4.090209623309548 -5.165854589751118 2.0000000000000013
    vertex -3.690209623309549 -5.165854589751118 4.6924242269597015e-15
    vertex -3.690209623309549 -5.165854589751118 2.0000000000000013
  endloop
endfacet
facet normal -1.0 0.0 0.0
  outer loop
    vertex -2.4902096233095508 0.8341454102488812 2.0000000000000013
    vertex -2.4902096233095508 -5.165854589751118 4.6924242269597015e-15
    vertex -2.4902096233095508 -5.165854589751118 2.0000000000000013
  endloop
endfacet
facet normal -1.0 0.0 0.0
  outer loop
    vertex -2.4902096233095508 -5.165854589751118 4.6924242269597015e-15
    vertex -2.4902096233095508 0.8341454102488812 2.0000000000000013
    vertex -2.4902096233095508 0.8341454102488812 4.6924242269597015e-15
  endloop
endfacet
facet normal 1.0 0.0 0.0
  outer loop
    vertex -3.690209623309549 0.8341454102488812 4.6924242269597015e-15
    vertex -3.690209623309549 -5.165854589751118 2.0000000000000013
    vertex -3.690209623309549 -5.165854589751118 4.6924242269597015e-15
  endloop
endfacet
facet normal 1.0 0.0 0.0
  outer loop
    vertex -3.690209623309549 -5.165854589751118 2.0000000000000013
    vertex -3.690209623309549 0.8341454102488812 4.6924242269597015e-15
    vertex -3.690209623309549 0.8341454102488812 2.0000000000000013
  endloop
endfacet
facet normal 0.0 -1.0 0.0
  outer loop
    vertex -2.0902096233095495 -5.165854589751118 2.0000000000000013
    vertex -2.4902096233095508 -5.165854589751118 4.6924242269597015e-15
    vertex -2.0902096233095495 -5.165854589751118 1.4438228390645235e-15
  endloop
endfacet
facet normal 0.0 -1.0 0.0
  outer loop
    vertex -2.4902096233095508 -5.165854589751118 4.6924242269597015e-15
    vertex -2.0902096233095495 -5.165854589751118 2.0000000000000013
    vertex -2.4902096233095508 -5.165854589751118 2.0000000000000013
  endloop
endfacet
facet normal 0.0 1.0 0.0
  outer loop
    vertex -1.8402096233095484 -3.565854589751118 2.0000000000000013
    vertex -0.7902096233095476 -3.565854589751118 1.4438228390645235e-15
    vertex -1.8402096233095484 -3.565854589751118 1.4438228390645235e-15
  endloop
endfacet
facet normal 0.0 1.0 0.0
  outer loop
    vertex -0.7902096233095476 -3.565854589751118 1.4438228390645235e-15
    vertex -1.8402096233095484 -3.565854589751118 2.0000000000000013
    vertex -0.7902096233095476 -3.565854589751118 2.0000000000000013
  endloop
endfacet
facet normal 1.0 0.0 0.0
  outer loop
    vertex -0.7902096233095476 -3.565854589751118 1.4438228390645235e-15
    vertex -0.7902096233095476 -3.665854589751118 2.0000000000000013
    vertex -0.7902096233095476 -3.665854589751118 1.4438228390645235e-15
  endloop
endfacet
facet normal 1.0 0.0 0.0
  outer loop
    vertex -0.7902096233095476 -3.665854589751118 2.0000000000000013
    vertex -0.7902096233095476 -3.565854589751118 1.4438228390645235e-15
    vertex -0.7902096233095476 -3.565854589751118 2.0000000000000013
  endloop
endfacet
facet normal 0.0 1.0 0.0
  outer loop
    vertex -5.390209623309549 -3.565854589751118 2.0000000000000013
    vertex -4.340209623309549 -3.565854589751118 1.4438228390645235e-15
    vertex -5.390209623309549 -3.565854589751118 1.4438228390645235e-15
  endloop
endfacet
facet normal 0.0 1.0 0.0
  outer loop
    vertex -4.340209623309549 -3.565854589751118 1.4438228390645235e-15
    vertex -5.390209623309549 -3.565854589751118 2.0000000000000013
    vertex -4.340209623309549 -3.565854589751118 2.0000000000000013
  endloop
endfacet
facet normal -1.0 0.0 0.0
  outer loop
    vertex -5.390209623309549 -3.565854589751118 2.0000000000000013
    vertex -5.390209623309549 -3.665854589751118 1.4438228390645235e-15
    vertex -5.390209623309549 -3.665854589751118 2.0000000000000013
  endloop
endfacet
facet normal -1.0 0.0 0.0
  outer loop
    vertex -5.390209623309549 -3.665854589751118 1.4438228390645235e-15
    vertex -5.390209623309549 -3.565854589751118 2.0000000000000013
    vertex -5.390209623309549 -3.565854589751118 1.4438228390645235e-15
  endloop
endfacet
facet normal 0.0 0.0 1.0
  outer loop
    vertex -0.7902096233095476 -3.665854589751118 2.0000000000000013
    vertex -1.8402096233095484 -3.565854589751118 2.0000000000000013
    vertex -2.0902096233095495 -5.165854589751118 2.0000000000000013
  endloop
endfacet
facet normal 0.0 0.0 1.0
  outer loop
    vertex -1.8402096233095484 -3.565854589751118 2.0000000000000013
    vertex -0.7902096233095476 -3.665854589751118 2.0000000000000013
    vertex -0.7902096233095476 -3.565854589751118 2.0000000000000013
  endloop
endfacet
facet normal 0.0 0.0 1.0
  outer loop
    vertex -2.0902096233095495 -5.165854589751118 2.0000000000000013
    vertex -2.4902096233095508 0.8341454102488812 2.0000000000000013
    vertex -2.4902096233095508 -5.165854589751118 2.0000000000000013
  endloop
endfacet
facet normal 0.0 0.0 1.0
  outer loop
    vertex -2.4902096233095508 0.8341454102488812 2.0000000000000013
    vertex -2.0902096233095495 -5.165854589751118 2.0000000000000013
    vertex -2.4902096233095508 1.5341454102488816 2.0000000000000013
  endloop
endfacet
facet normal 0.0 0.0 1.0
  outer loop
    vertex -2.4902096233095508 1.5341454102488816 2.0000000000000013
    vertex -2.0902096233095495 -5.165854589751118 2.0000000000000013
    vertex -1.8402096233095484 1.5341454102488816 2.0000000000000013
  endloop
endfacet
facet normal 0.0 0.0 1.0
  outer loop
    vertex -1.8402096233095484 1.5341454102488816 2.0000000000000013
    vertex -2.0902096233095495 -5.165854589751118 2.0000000000000013
    vertex -1.8402096233095484 -3.565854589751118 2.0000000000000013
  endloop
endfacet
facet normal 0.0 1.0 0.0
  outer loop
    vertex -5.090209623309549 1.0341454102488812 2.0000000000000013
    vertex -1.090209623309537 1.0341454102488812 1.4438228390645235e-15
    vertex -5.090209623309549 1.0341454102488812 1.4438228390645235e-15
  endloop
endfacet
facet normal 0.0 1.0 0.0
  outer loop
    vertex -1.090209623309537 1.0341454102488812 1.4438228390645235e-15
    vertex -5.090209623309549 1.0341454102488812 2.0000000000000013
    vertex -1.090209623309537 1.0341454102488812 2.0000000000000013
  endloop
endfacet
facet normal -0.0 -0.0 -1.0
  outer loop
    vertex -1.090209623309537 1.0341454102488812 1.4438228390645235e-15
    vertex -5.090209623309549 -0.4658545897511183 1.4438228390645235e-15
    vertex -5.090209623309549 1.0341454102488812 1.4438228390645235e-15
  endloop
endfacet
facet normal -0.0 -0.0 -1.0
  outer loop
    vertex -5.090209623309549 -0.4658545897511183 1.4438228390645235e-15
    vertex -1.090209623309537 1.0341454102488812 1.4438228390645235e-15
    vertex -1.090209623309537 -0.4658545897511183 1.4438228390645235e-15
  endloop
endfacet
facet normal 0.0 0.0 1.0
  outer loop
    vertex -1.090209623309537 -0.4658545897511183 2.0000000000000013
    vertex -5.090209623309549 1.0341454102488812 2.0000000000000013
    vertex -5.090209623309549 -0.4658545897511183 2.0000000000000013
  endloop
endfacet
facet normal 0.0 0.0 1.0
  outer loop
    vertex -5.090209623309549 1.0341454102488812 2.0000000000000013
    vertex -1.090209623309537 -0.4658545897511183 2.0000000000000013
    vertex -1.090209623309537 1.0341454102488812 2.0000000000000013
  endloop
endfacet
facet normal 1.0 0.0 0.0
  outer loop
    vertex -1.090209623309537 1.0341454102488812 1.4438228390645235e-15
    vertex -1.090209623309537 -0.4658545897511183 2.0000000000000013
    vertex -1.090209623309537 -0.4658545897511183 1.4438228390645235e-15
  endloop
endfacet
facet normal 1.0 0.0 0.0
  outer loop
    vertex -1.090209623309537 -0.4658545897511183 2.0000000000000013
    vertex -1.090209623309537 1.0341454102488812 1.4438228390645235e-15
    vertex -1.090209623309537 1.0341454102488812 2.0000000000000013
  endloop
endfacet
facet normal 0.0 -1.0 0.0
  outer loop
    vertex -1.090209623309537 -0.4658545897511183 2.0000000000000013
    vertex -5.090209623309549 -0.4658545897511183 1.4438228390645235e-15
    vertex -1.090209623309537 -0.4658545897511183 1.4438228390645235e-15
  endloop
endfacet
facet normal 0.0 -1.0 0.0
  outer loop
    vertex -5.090209623309549 -0.4658545897511183 1.4438228390645235e-15
    vertex -1.090209623309537 -0.4658545897511183 2.0000000000000013
    vertex -5.090209623309549 -0.4658545897511183 2.0000000000000013
  endloop
endfacet
facet normal -1.0 0.0 0.0
  outer loop
    vertex -5.090209623309549 1.0341454102488812 2.0000000000000013
    vertex -5.090209623309549 -0.4658545897511183 1.4438228390645235e-15
    vertex -5.090209623309549 -0.4658545897511183 2.0000000000000013
  endloop
endfacet
facet normal -1.0 0.0 0.0
  outer loop
    vertex -5.090209623309549 -0.4658545897511183 1.4438228390645235e-15
    vertex -5.090209623309549 1.0341454102488812 2.0000000000000013
    vertex -5.090209623309549 1.0341454102488812 1.4438228390645235e-15
  endloop
endfacet
facet normal -1.1017407542128779e-30 1.922249341949809e-17 -1.0
  outer loop
    vertex 1.7693253223708594 -3.561107601243001 1.4438228390645235e-15
    vertex 0.7193253223708586 -3.6611076012430015 1.4438228390645235e-15
    vertex 0.7193253223708586 -3.561107601243001 1.4438228390645235e-15
  endloop
endfacet
facet normal -1.1017407542128779e-30 1.922249341949809e-17 -1.0
  outer loop
    vertex 0.7193253223708586 -3.6611076012430015 1.4438228390645235e-15
    vertex 1.7693253223708594 -3.561107601243001 1.4438228390645235e-15
    vertex 2.0193253223708605 -5.1611076012430015 1.4438228390645235e-15
  endloop
endfacet
facet normal -1.1017407542128779e-30 1.922249341949809e-17 -1.0
  outer loop
    vertex 1.7693253223708594 1.5388923987569985 1.4438228390645235e-15
    vertex 2.419325322370859 0.8388923987569981 4.6924242269597015e-15
    vertex 1.7693253223708594 -3.561107601243001 1.4438228390645235e-15
  endloop
endfacet
facet normal -1.1017407542128779e-30 1.922249341949809e-17 -1.0
  outer loop
    vertex 2.419325322370859 0.8388923987569981 4.6924242269597015e-15
    vertex 1.7693253223708594 1.5388923987569985 1.4438228390645235e-15
    vertex 4.26932532237086 1.5388923987569985 1.4438228390645235e-15
  endloop
endfacet
facet normal -1.1017407542128779e-30 1.922249341949809e-17 -1.0
  outer loop
    vertex 1.7693253223708594 -3.561107601243001 1.4438228390645235e-15
    vertex 2.419325322370859 0.8388923987569981 4.6924242269597015e-15
    vertex 2.0193253223708605 -5.1611076012430015 1.4438228390645235e-15
  endloop
endfacet
facet normal -1.1017407542128779e-30 1.922249341949809e-17 -1.0
  outer loop
    vertex 2.419325322370859 0.8388923987569981 4.6924242269597015e-15
    vertex 4.26932532237086 1.5388923987569985 1.4438228390645235e-15
    vertex 3.6193253223708575 0.8388923987569981 4.6924242269597015e-15
  endloop
endfacet
facet normal -1.1017407542128779e-30 1.922249341949809e-17 -1.0
  outer loop
    vertex 3.6193253223708575 0.8388923987569981 4.6924242269597015e-15
    vertex 4.26932532237086 1.5388923987569985 1.4438228390645235e-15
    vertex 3.6193253223708575 -5.1611076012430015 4.6924242269597015e-15
  endloop
endfacet
facet normal -1.1017407542128779e-30 1.922249341949809e-17 -1.0
  outer loop
    vertex 3.6193253223708575 -5.1611076012430015 4.6924242269597015e-15
    vertex 4.26932532237086 1.5388923987569985 1.4438228390645235e-15
    vertex 4.019325322370859 -5.1611076012430015 1.4438228390645235e-15
  endloop
endfacet
facet normal -1.1017407542128779e-30 1.922249341949809e-17 -1.0
  outer loop
    vertex 4.019325322370859 -5.1611076012430015 1.4438228390645235e-15
    vertex 4.26932532237086 1.5388923987569985 1.4438228390645235e-15
    vertex 4.26932532237086 -3.561107601243001 1.4438228390645235e-15
  endloop
endfacet
facet normal -1.1017407542128779e-30 1.922249341949809e-17 -1.0
  outer loop
    vertex 4.019325322370859 -5.1611076012430015 1.4438228390645235e-15
    vertex 4.26932532237086 -3.561107601243001 1.4438228390645235e-15
    vertex 5.319325322370861 -3.6611076012430015 1.4438228390645235e-15
  endloop
endfacet
facet normal -1.1017407542128779e-30 1.922249341949809e-17 -1.0
  outer loop
    vertex 5.319325322370861 -3.6611076012430015 1.4438228390645235e-15
    vertex 4.26932532237086 -3.561107601243001 1.4438228390645235e-15
    vertex 5.319325322370861 -3.561107601243001 1.4438228390645235e-15
  endloop
endfacet
facet normal -1.1017407542128779e-30 1.922249341949809e-17 -1.0
  outer loop
    vertex 2.419325322370859 -5.1611076012430015 4.6924242269597015e-15
    vertex 2.0193253223708605 -5.1611076012430015 1.4438228390645235e-15
    vertex 2.419325322370859 0.8388923987569981 4.6924242269597015e-15
  endloop
endfacet
facet normal 0.7556890827898171 -0.6549305384178425 0.0
  outer loop
    vertex 5.319325322370861 -3.6611076012430015 1.4438228390645235e-15
    vertex 4.019325322370859 -5.1611076012430015 2.0000000000000013
    vertex 4.019325322370859 -5.1611076012430015 1.4438228390645235e-15
  endloop
endfacet
facet normal 0.7556890827898171 -0.6549305384178425 0.0
  outer loop
    vertex 4.019325322370859 -5.1611076012430015 2.0000000000000013
    vertex 5.319325322370861 -3.6611076012430015 1.4438228390645235e-15
    vertex 5.319325322370861 -3.6611076012430015 2.0000000000000013
  endloop
endfacet
facet normal -0.0 -1.0 -0.0
  outer loop
    vertex 3.6193253223708575 0.8388923987569981 2.0000000000000013
    vertex 2.419325322370859 0.8388923987569981 4.6924242269597015e-15
    vertex 3.6193253223708575 0.8388923987569981 4.6924242269597015e-15
  endloop
endfacet
facet normal -0.0 -1.0 -0.0
  outer loop
    vertex 2.419325322370859 0.8388923987569981 4.6924242269597015e-15
    vertex 3.6193253223708575 0.8388923987569981 2.0000000000000013
    vertex 2.419325322370859 0.8388923987569981 2.0000000000000013
  endloop
endfacet
facet normal 0.0 0.0 1.0
  outer loop
    vertex 2.0193253223708605 -5.1611076012430015 2.0000000000000013
    vertex 0.7193253223708586 -3.561107601243001 2.0000000000000013
    vertex 0.7193253223708586 -3.6611076012430015 2.0000000000000013
  endloop
endfacet
facet normal 0.0 0.0 1.0
  outer loop
    vertex 0.7193253223708586 -3.561107601243001 2.0000000000000013
    vertex 2.0193253223708605 -5.1611076012430015 2.0000000000000013
    vertex 1.7693253223708594 -3.561107601243001 2.0000000000000013
  endloop
endfacet
facet normal 0.0 0.0 1.0
  outer loop
    vertex 1.7693253223708594 -3.561107601243001 2.0000000000000013
    vertex 2.0193253223708605 -5.1611076012430015 2.0000000000000013
    vertex 1.7693253223708594 1.5388923987569985 2.0000000000000013
  endloop
endfacet
facet normal 0.0 0.0 1.0
  outer loop
    vertex 1.7693253223708594 1.5388923987569985 2.0000000000000013
    vertex 2.0193253223708605 -5.1611076012430015 2.0000000000000013
    vertex 2.419325322370859 0.8388923987569981 2.0000000000000013
  endloop
endfacet
facet normal 0.0 0.0 1.0
  outer loop
    vertex 1.7693253223708594 1.5388923987569985 2.0000000000000013
    vertex 2.419325322370859 0.8388923987569981 2.0000000000000013
    vertex 3.6193253223708575 1.5388923987569985 2.0000000000000013
  endloop
endfacet
facet normal 0.0 0.0 1.0
  outer loop
    vertex 2.419325322370859 0.8388923987569981 2.0000000000000013
    vertex 2.0193253223708605 -5.1611076012430015 2.0000000000000013
    vertex 2.419325322370859 -5.1611076012430015 2.0000000000000013
  endloop
endfacet
facet normal 0.0 0.0 1.0
  outer loop
    vertex 3.6193253223708575 1.5388923987569985 2.0000000000000013
    vertex 2.419325322370859 0.8388923987569981 2.0000000000000013
    vertex 3.6193253223708575 0.8388923987569981 2.0000000000000013
  endloop
endfacet
facet normal 1.0 0.0 0.0
  outer loop
    vertex 4.26932532237086 1.5388923987569985 1.4438228390645235e-15
    vertex 4.26932532237086 -3.561107601243001 2.0000000000000013
    vertex 4.26932532237086 -3.561107601243001 1.4438228390645235e-15
  endloop
endfacet
facet normal 1.0 0.0 0.0
  outer loop
    vertex 4.26932532237086 -3.561107601243001 2.0000000000000013
    vertex 4.26932532237086 1.5388923987569985 1.4438228390645235e-15
    vertex 4.26932532237086 1.5388923987569985 2.0000000000000013
  endloop
endfacet
facet normal 0.0 1.0 0.0
  outer loop
    vertex 1.7693253223708594 1.5388923987569985 2.0000000000000013
    vertex 4.26932532237086 1.5388923987569985 1.4438228390645235e-15
    vertex 1.7693253223708594 1.5388923987569985 1.4438228390645235e-15
  endloop
endfacet
facet normal 0.0 1.0 0.0
  outer loop
    vertex 4.26932532237086 1.5388923987569985 1.4438228390645235e-15
    vertex 1.7693253223708594 1.5388923987569985 2.0000000000000013
    vertex 4.26932532237086 1.5388923987569985 2.0000000000000013
  endloop
endfacet
facet normal 0.0 1.0 0.0
  outer loop
    vertex 4.26932532237086 1.5388923987569985 2.0000000000000013
    vertex 1.7693253223708594 1.5388923987569985 2.0000000000000013
    vertex 3.6193253223708575 1.5388923987569985 2.0000000000000013
  endloop
endfacet
facet normal -1.0 0.0 0.0
  outer loop
    vertex 1.7693253223708594 1.5388923987569985 2.0000000000000013
    vertex 1.7693253223708594 -3.561107601243001 1.4438228390645235e-15
    vertex 1.7693253223708594 -3.561107601243001 2.0000000000000013
  endloop
endfacet
facet normal -1.0 0.0 0.0
  outer loop
    vertex 1.7693253223708594 -3.561107601243001 1.4438228390645235e-15
    vertex 1.7693253223708594 1.5388923987569985 2.0000000000000013
    vertex 1.7693253223708594 1.5388923987569985 1.4438228390645235e-15
  endloop
endfacet
facet normal -0.7556890827898175 -0.6549305384178421 0.0
  outer loop
    vertex 0.7193253223708586 -3.6611076012430015 2.0000000000000013
    vertex 2.0193253223708605 -5.1611076012430015 1.4438228390645235e-15
    vertex 2.0193253223708605 -5.1611076012430015 2.0000000000000013
  endloop
endfacet
facet normal -0.7556890827898175 -0.6549305384178421 0.0
  outer loop
    vertex 2.0193253223708605 -5.1611076012430015 1.4438228390645235e-15
    vertex 0.7193253223708586 -3.6611076012430015 2.0000000000000013
    vertex 0.7193253223708586 -3.6611076012430015 1.4438228390645235e-15
  endloop
endfacet
facet normal 0.0 -1.0 0.0
  outer loop
    vertex 2.419325322370859 -5.1611076012430015 4.6924242269597015e-15
    vertex 2.0193253223708605 -5.1611076012430015 2.0000000000000013
    vertex 2.0193253223708605 -5.1611076012430015 1.4438228390645235e-15
  endloop
endfacet
facet normal 0.0 -1.0 0.0
  outer loop
    vertex 2.0193253223708605 -5.1611076012430015 2.0000000000000013
    vertex 2.419325322370859 -5.1611076012430015 4.6924242269597015e-15
    vertex 2.419325322370859 -5.1611076012430015 2.0000000000000013
  endloop
endfacet
facet normal -1.0 0.0 0.0
  outer loop
    vertex 3.6193253223708575 0.8388923987569981 2.0000000000000013
    vertex 3.6193253223708575 -5.1611076012430015 4.6924242269597015e-15
    vertex 3.6193253223708575 -5.1611076012430015 2.0000000000000013
  endloop
endfacet
facet normal -1.0 0.0 0.0
  outer loop
    vertex 3.6193253223708575 -5.1611076012430015 4.6924242269597015e-15
    vertex 3.6193253223708575 0.8388923987569981 2.0000000000000013
    vertex 3.6193253223708575 0.8388923987569981 4.6924242269597015e-15
  endloop
endfacet
facet normal 1.0 0.0 0.0
  outer loop
    vertex 2.419325322370859 0.8388923987569981 4.6924242269597015e-15
    vertex 2.419325322370859 -5.1611076012430015 2.0000000000000013
    vertex 2.419325322370859 -5.1611076012430015 4.6924242269597015e-15
  endloop
endfacet
facet normal 1.0 0.0 0.0
  outer loop
    vertex 2.419325322370859 -5.1611076012430015 2.0000000000000013
    vertex 2.419325322370859 0.8388923987569981 4.6924242269597015e-15
    vertex 2.419325322370859 0.8388923987569981 2.0000000000000013
  endloop
endfacet
facet normal 0.0 -1.0 0.0
  outer loop
    vertex 4.019325322370859 -5.1611076012430015 2.0000000000000013
    vertex 3.6193253223708575 -5.1611076012430015 4.6924242269597015e-15
    vertex 4.019325322370859 -5.1611076012430015 1.4438228390645235e-15
  endloop
endfacet
facet normal 0.0 -1.0 0.0
  outer loop
    vertex 3.6193253223708575 -5.1611076012430015 4.6924242269597015e-15
    vertex 4.019325322370859 -5.1611076012430015 2.0000000000000013
    vertex 3.6193253223708575 -5.1611076012430015 2.0000000000000013
  endloop
endfacet
facet normal 0.0 1.0 0.0
  outer loop
    vertex 4.26932532237086 -3.561107601243001 2.0000000000000013
    vertex 5.319325322370861 -3.561107601243001 1.4438228390645235e-15
    vertex 4.26932532237086 -3.561107601243001 1.4438228390645235e-15
  endloop
endfacet
facet normal 0.0 1.0 0.0
  outer loop
    vertex 5.319325322370861 -3.561107601243001 1.4438228390645235e-15
    vertex 4.26932532237086 -3.561107601243001 2.0000000000000013
    vertex 5.319325322370861 -3.561107601243001 2.0000000000000013
  endloop
endfacet
facet normal 1.0 0.0 0.0
  outer loop
    vertex 5.319325322370861 -3.561107601243001 1.4438228390645235e-15
    vertex 5.319325322370861 -3.6611076012430015 2.0000000000000013
    vertex 5.319325322370861 -3.6611076012430015 1.4438228390645235e-15
  endloop
endfacet
facet normal 1.0 0.0 0.0
  outer loop
    vertex 5.319325322370861 -3.6611076012430015 2.0000000000000013
    vertex 5.319325322370861 -3.561107601243001 1.4438228390645235e-15
    vertex 5.319325322370861 -3.561107601243001 2.0000000000000013
  endloop
endfacet
facet normal 0.0 1.0 0.0
  outer loop
    vertex 0.7193253223708586 -3.561107601243001 2.0000000000000013
    vertex 1.7693253223708594 -3.561107601243001 1.4438228390645235e-15
    vertex 0.7193253223708586 -3.561107601243001 1.4438228390645235e-15
  endloop
endfacet
facet normal 0.0 1.0 0.0
  outer loop
    vertex 1.7693253223708594 -3.561107601243001 1.4438228390645235e-15
    vertex 0.7193253223708586 -3.561107601243001 2.0000000000000013
    vertex 1.7693253223708594 -3.561107601243001 2.0000000000000013
  endloop
endfacet
facet normal -1.0 0.0 0.0
  outer loop
    vertex 0.7193253223708586 -3.561107601243001 2.0000000000000013
    vertex 0.7193253223708586 -3.6611076012430015 1.4438228390645235e-15
    vertex 0.7193253223708586 -3.6611076012430015 2.0000000000000013
  endloop
endfacet
facet normal -1.0 0.0 0.0
  outer loop
    vertex 0.7193253223708586 -3.6611076012430015 1.4438228390645235e-15
    vertex 0.7193253223708586 -3.561107601243001 2.0000000000000013
    vertex 0.7193253223708586 -3.561107601243001 1.4438228390645235e-15
  endloop
endfacet
facet normal 0.0 0.0 1.0
  outer loop
    vertex 5.319325322370861 -3.6611076012430015 2.0000000000000013
    vertex 4.26932532237086 -3.561107601243001 2.0000000000000013
    vertex 4.019325322370859 -5.1611076012430015 2.0000000000000013
  endloop
endfacet
facet normal 0.0 0.0 1.0
  outer loop
    vertex 4.26932532237086 -3.561107601243001 2.0000000000000013
    vertex 5.319325322370861 -3.6611076012430015 2.0000000000000013
    vertex 5.319325322370861 -3.561107601243001 2.0000000000000013
  endloop
endfacet
facet normal 0.0 0.0 1.0
  outer loop
    vertex 4.019325322370859 -5.1611076012430015 2.0000000000000013
    vertex 3.6193253223708575 0.8388923987569981 2.0000000000000013
    vertex 3.6193253223708575 -5.1611076012430015 2.0000000000000013
  endloop
endfacet
facet normal 0.0 0.0 1.0
  outer loop
    vertex 3.6193253223708575 0.8388923987569981 2.0000000000000013
    vertex 4.019325322370859 -5.1611076012430015 2.0000000000000013
    vertex 3.6193253223708575 1.5388923987569985 2.0000000000000013
  endloop
endfacet
facet normal 0.0 0.0 1.0
  outer loop
    vertex 3.6193253223708575 1.5388923987569985 2.0000000000000013
    vertex 4.019325322370859 -5.1611076012430015 2.0000000000000013
    vertex 4.26932532237086 1.5388923987569985 2.0000000000000013
  endloop
endfacet
facet normal 0.0 0.0 1.0
  outer loop
    vertex 4.26932532237086 1.5388923987569985 2.0000000000000013
    vertex 4.019325322370859 -5.1611076012430015 2.0000000000000013
    vertex 4.26932532237086 -3.561107601243001 2.0000000000000013
  endloop
endfacet
facet normal 0.0 1.0 0.0
  outer loop
    vertex 1.0193253223708596 1.038892398756998 2.0000000000000013
    vertex 5.019325322370871 1.038892398756998 1.4438228390645235e-15
    vertex 1.0193253223708596 1.038892398756998 1.4438228390645235e-15
  endloop
endfacet
facet normal 0.0 1.0 0.0
  outer loop
    vertex 5.019325322370871 1.038892398756998 1.4438228390645235e-15
    vertex 1.0193253223708596 1.038892398756998 2.0000000000000013
    vertex 5.019325322370871 1.038892398756998 2.0000000000000013
  endloop
endfacet
facet normal -0.0 -0.0 -1.0
  outer loop
    vertex 5.019325322370871 1.038892398756998 1.4438228390645235e-15
    vertex 1.0193253223708596 -0.4611076012430016 1.4438228390645235e-15
    vertex 1.0193253223708596 1.038892398756998 1.4438228390645235e-15
  endloop
endfacet
facet normal -0.0 -0.0 -1.0
  outer loop
    vertex 1.0193253223708596 -0.4611076012430016 1.4438228390645235e-15
    vertex 5.019325322370871 1.038892398756998 1.4438228390645235e-15
    vertex 5.019325322370871 -0.4611076012430016 1.4438228390645235e-15
  endloop
endfacet
facet normal 0.0 0.0 1.0
  outer loop
    vertex 5.019325322370871 -0.4611076012430016 2.0000000000000013
    vertex 1.0193253223708596 1.038892398756998 2.0000000000000013
    vertex 1.0193253223708596 -0.4611076012430016 2.0000000000000013
  endloop
endfacet
facet normal 0.0 0.0 1.0
  outer loop
    vertex 1.0193253223708596 1.038892398756998 2.0000000000000013
    vertex 5.019325322370871 -0.4611076012430016 2.0000000000000013
    vertex 5.019325322370871 1.038892398756998 2.0000000000000013
  endloop
endfacet
facet normal 1.0 0.0 0.0
  outer loop
    vertex 5.019325322370871 1.038892398756998 1.4438228390645235e-15
    vertex 5.019325322370871 -0.4611076012430016 2.0000000000000013
    vertex 5.019325322370871 -0.4611076012430016 1.4438228390645235e-15
  endloop
endfacet
facet normal 1.0 0.0 0.0
  outer loop
    vertex 5.019325322370871 -0.4611076012430016 2.0000000000000013
    vertex 5.019325322370871 1.038892398756998 1.4438228390645235e-15
    vertex 5.019325322370871 1.038892398756998 2.0000000000000013
  endloop
endfacet
facet normal 0.0 -1.0 0.0
  outer loop
    vertex 5.019325322370871 -0.4611076012430016 2.0000000000000013
    vertex 1.0193253223708596 -0.4611076012430016 1.4438228390645235e-15
    vertex 5.019325322370871 -0.4611076012430016 1.4438228390645235e-15
  endloop
endfacet
facet normal 0.0 -1.0 0.0
  outer loop
    vertex 1.0193253223708596 -0.4611076012430016 1.4438228390645235e-15
    vertex 5.019325322370871 -0.4611076012430016 2.0000000000000013
    vertex 1.0193253223708596 -0.4611076012430016 2.0000000000000013
  endloop
endfacet
facet normal -1.0 0.0 0.0
  outer loop
    vertex 1.0193253223708596 1.038892398756998 2.0000000000000013
    vertex 1.0193253223708596 -0.4611076012430016 1.4438228390645235e-15
    vertex 1.0193253223708596 -0.4611076012430016 2.0000000000000013
  endloop
endfacet
facet normal -1.0 0.0 0.0
  outer loop
    vertex 1.0193253223708596 -0.4611076012430016 1.4438228390645235e-15
    vertex 1.0193253223708596 1.038892398756998 2.0000000000000013
    vertex 1.0193253223708596 1.038892398756998 1.4438228390645235e-15
  endloop
endfacet
endsolid GNSS2_barometer_cover_pins
