%FSTAX43Y43*%
%MOMM*%
%SFA1B1*%

%IPPOS*%
%AMD74*
4,1,8,0.200660,0.500380,-0.200660,0.500380,-0.500380,0.200660,-0.500380,-0.200660,-0.200660,-0.500380,0.200660,-0.500380,0.500380,-0.200660,0.500380,0.200660,0.200660,0.500380,0.0*
1,1,0.604000,0.200660,0.200660*
1,1,0.604000,-0.200660,0.200660*
1,1,0.604000,-0.200660,-0.200660*
1,1,0.604000,0.200660,-0.200660*
%
%AMD80*
4,1,8,0.500380,-0.200660,0.500380,0.200660,0.200660,0.500380,-0.200660,0.500380,-0.500380,0.200660,-0.500380,-0.200660,-0.200660,-0.500380,0.200660,-0.500380,0.500380,-0.200660,0.0*
1,1,0.604000,0.200660,-0.200660*
1,1,0.604000,0.200660,0.200660*
1,1,0.604000,-0.200660,0.200660*
1,1,0.604000,-0.200660,-0.200660*
%
%AMD87*
4,1,8,0.850900,-0.248920,0.850900,0.248920,0.500380,0.601980,-0.500380,0.601980,-0.850900,0.248920,-0.850900,-0.248920,-0.500380,-0.601980,0.500380,-0.601980,0.850900,-0.248920,0.0*
1,1,0.704000,0.500380,-0.248920*
1,1,0.704000,0.500380,0.248920*
1,1,0.704000,-0.500380,0.248920*
1,1,0.704000,-0.500380,-0.248920*
%
%AMD93*
4,1,8,0.248920,0.850900,-0.248920,0.850900,-0.601980,0.500380,-0.601980,-0.500380,-0.248920,-0.850900,0.248920,-0.850900,0.601980,-0.500380,0.601980,0.500380,0.248920,0.850900,0.0*
1,1,0.704000,0.248920,0.500380*
1,1,0.704000,-0.248920,0.500380*
1,1,0.704000,-0.248920,-0.500380*
1,1,0.704000,0.248920,-0.500380*
%
%ADD71R,3.149994X1.649997*%
%ADD72R,1.199998X1.399997*%
%ADD73R,0.802998X0.702999*%
G04~CAMADD=74~8~0.0~0.0~394.9~394.9~118.9~0.0~15~0.0~0.0~0.0~0.0~0~0.0~0.0~0.0~0.0~0~0.0~0.0~0.0~0.0~394.9~394.9*
%ADD74D74*%
%ADD75R,1.252997X2.352995*%
%ADD76R,1.252997X2.352995*%
%ADD77R,3.602993X2.352995*%
%ADD78R,2.902994X1.202998*%
%ADD79R,2.002996X0.802998*%
G04~CAMADD=80~8~0.0~0.0~394.9~394.9~118.9~0.0~15~0.0~0.0~0.0~0.0~0~0.0~0.0~0.0~0.0~0~0.0~0.0~0.0~270.0~394.0~394.0*
%ADD80D80*%
%ADD81R,0.942998X2.052996*%
%ADD82R,1.202998X2.902994*%
%ADD83R,0.802998X2.002996*%
%ADD84R,2.602995X2.102996*%
%ADD85O,0.802998X2.402995*%
%ADD86R,0.962998X1.292997*%
G04~CAMADD=87~8~0.0~0.0~473.6~670.5~138.6~0.0~15~0.0~0.0~0.0~0.0~0~0.0~0.0~0.0~0.0~0~0.0~0.0~0.0~270.0~671.0~474.0*
%ADD87D87*%
%ADD88R,0.964998X3.225994*%
%ADD89R,2.399995X1.099998*%
%ADD90R,2.399995X1.199998*%
%ADD91R,0.702999X0.802998*%
%ADD92R,0.802998X1.502997*%
G04~CAMADD=93~8~0.0~0.0~473.6~670.5~138.6~0.0~15~0.0~0.0~0.0~0.0~0~0.0~0.0~0.0~0.0~0~0.0~0.0~0.0~0.0~473.6~670.5*
%ADD93D93*%
%ADD94O,2.202996X0.502999*%
%ADD95O,0.502999X2.202996*%
%ADD96R,1.502997X1.602997*%
%ADD97R,1.202998X0.702999*%
%ADD98R,0.502999X1.202998*%
%ADD99R,1.202998X0.502999*%
%ADD100R,0.899998X0.579999*%
%ADD101R,1.482997X1.702997*%
%ADD102R,2.202996X5.202990*%
%ADD103R,2.202996X3.952992*%
%ADD104R,2.202996X2.452995*%
%ADD105R,5.202990X2.202996*%
%ADD106R,5.202990X2.202996*%
%ADD107R,2.202996X5.202990*%
%ADD108C,2.002996*%
%ADD109C,5.202990*%
%ADD110C,3.202994*%
%ADD111C,0.602999*%
%LNgps-1*%
%LPD*%
G54D71*
X0128499Y0151899D03*
G54D72*
X0151348Y0112699D03*
G54D73*
X0127599Y0143299D03*
Y0144299D03*
X0131201Y0151295D03*
Y0150295D03*
G54D74*
X0131024Y0111549D03*
X0129774D03*
X0146574Y0153435D03*
X0145324D03*
X0153153Y0114974D03*
X0154403D03*
X0149732Y0113124D03*
X0148482D03*
X0135899Y0126499D03*
X0137149D03*
X0110549Y0121899D03*
X0111799D03*
X0116974D03*
X0118224D03*
X0109874Y0112499D03*
X0108624D03*
X0105074Y0132324D03*
X0106324D03*
X0157249Y0136899D03*
X0155999D03*
X0157249Y0135266D03*
X0155999D03*
X0157249Y0133332D03*
X0155999D03*
X0157249Y0131699D03*
X0155999D03*
X0154449Y0135266D03*
X0153199D03*
X0154449Y0131699D03*
X0153199D03*
X0154449Y0133332D03*
X0153199D03*
X0154449Y0136899D03*
X0153199D03*
X0148049Y0110799D03*
X0149299D03*
X0147182Y0129024D03*
X0148432D03*
G54D75*
X0101974Y0119924D03*
G54D76*
X0104274Y0119924D03*
X0106574D03*
G54D77*
X0104274Y0126124D03*
G54D78*
X0097049Y0109074D03*
Y0118924D03*
G54D79*
X0100249Y0114624D03*
Y0115874D03*
Y0113374D03*
Y0112124D03*
Y0117124D03*
Y0110874D03*
G54D80*
X0135699Y0109024D03*
Y0110274D03*
X0155682Y0124449D03*
Y0123199D03*
X0137274Y0116074D03*
Y0114824D03*
X0135699Y0111874D03*
Y0113124D03*
X0157157Y0123199D03*
Y0124449D03*
X015416Y0124072D03*
Y0122822D03*
X0154403Y0120849D03*
Y0119599D03*
Y0116618D03*
Y0117868D03*
X0145499Y0111799D03*
Y0113049D03*
X0140074Y0128324D03*
Y0129574D03*
X0147149Y010277D03*
Y010402D03*
X0136649Y0129549D03*
Y0130799D03*
X0147001Y0156283D03*
Y0155033D03*
X0145333D03*
Y0156283D03*
X0125674Y0126674D03*
Y0127924D03*
X0143474Y0130682D03*
Y0129432D03*
G54D81*
X0139254Y0107549D03*
X0137984D03*
X0141794D03*
X0143064D03*
X0137984Y0111749D03*
X0139254D03*
X0143064D03*
X0141794D03*
X0140524Y0107549D03*
Y0111749D03*
G54D82*
X0109674Y0102049D03*
X0102324D03*
X0127174D03*
X0119824D03*
X0135924D03*
X0128574D03*
X0118424D03*
X0111074D03*
G54D83*
X0105374Y0105249D03*
X0104124D03*
X0106624D03*
X0107874D03*
X0122874D03*
X0121624D03*
X0124124D03*
X0125374D03*
X0131624D03*
X0130374D03*
X0132874D03*
X0134124D03*
X0114124D03*
X0112874D03*
X0115374D03*
X0116624D03*
G54D84*
X0156907Y0120515D03*
Y0116415D03*
G54D85*
X0119455Y0119803D03*
X0118185D03*
X0116915D03*
X0115645D03*
X0119455Y0115003D03*
X0118185D03*
X0116915D03*
X0115645D03*
X0113103Y0119799D03*
X0111833D03*
X0110563D03*
X0109293D03*
X0113103Y0114999D03*
X0111833D03*
X0110563D03*
X0109293D03*
G54D86*
X0125709Y0109774D03*
X0124189D03*
X0107664D03*
X0109184D03*
G54D87*
X0105074Y0114599D03*
Y0117099D03*
X0111224Y0126749D03*
Y0129249D03*
G54D88*
X0100824Y0136469D03*
X0099312D03*
G54D89*
X0133799Y0153499D03*
Y0144699D03*
X0142799D03*
Y0153499D03*
G54D90*
X0133799Y0152399D03*
Y0151299D03*
Y0150199D03*
Y0149099D03*
Y0147999D03*
Y0146899D03*
Y0145799D03*
X0142799D03*
Y0146899D03*
Y0147999D03*
Y0149099D03*
Y0150199D03*
Y0151299D03*
Y0152399D03*
G54D91*
X0126361Y0149935D03*
X0127361D03*
G54D92*
X012873Y0126065D03*
X012748D03*
X012998D03*
X013123D03*
Y0128665D03*
X012998D03*
X012873D03*
X012748D03*
G54D93*
X0148834Y010316D03*
X0151334D03*
G54D94*
X0150874Y0117324D03*
Y0117824D03*
Y0118324D03*
Y0118824D03*
Y0119324D03*
Y0119824D03*
Y0120324D03*
Y0120824D03*
Y0121324D03*
Y0121824D03*
Y0122324D03*
Y0122824D03*
Y0123324D03*
Y0123824D03*
Y0124324D03*
Y0124824D03*
X0139574D03*
Y0124324D03*
Y0123824D03*
Y0123324D03*
Y0122824D03*
Y0122324D03*
Y0121824D03*
Y0121324D03*
Y0120824D03*
Y0120324D03*
Y0119824D03*
Y0119324D03*
Y0118824D03*
Y0118324D03*
Y0117824D03*
Y0117324D03*
G54D95*
X0148974Y0126724D03*
X0148474D03*
X0147974D03*
X0147474D03*
X0146974D03*
X0146474D03*
X0145974D03*
X0145474D03*
X0144974D03*
X0144474D03*
X0143974D03*
X0143474D03*
X0142974D03*
X0142474D03*
X0141974D03*
X0141474D03*
Y0115424D03*
X0141974D03*
X0142474D03*
X0142974D03*
X0143474D03*
X0143974D03*
X0144474D03*
X0144974D03*
X0145474D03*
X0145974D03*
X0146474D03*
X0146974D03*
X0147474D03*
X0147974D03*
X0148474D03*
X0148974D03*
G54D96*
X0122249Y0109824D03*
X0119349D03*
X0111524D03*
X0114424D03*
X0111374Y0132099D03*
X0108474D03*
G54D97*
X0151349Y0113099D03*
Y0112299D03*
G54D98*
X0149599Y0105595D03*
X0149099D03*
X0148599D03*
X0150099D03*
X0148599Y0108795D03*
X0150099D03*
X0149599D03*
X0149099D03*
G54D99*
X0150949Y0107945D03*
Y0106445D03*
Y0106945D03*
Y0107445D03*
X0147749Y0106445D03*
Y0107945D03*
Y0107445D03*
Y0106945D03*
G54D100*
X0129641Y0152435D03*
Y0151355D03*
Y0151895D03*
X0127361D03*
Y0151355D03*
Y0152435D03*
G54D101*
X0128501Y0151895D03*
G54D102*
X0149749Y0162749D03*
X0118249D03*
Y0151749D03*
G54D103*
X0149749Y0152374D03*
G54D104*
X0149749Y0144374D03*
G54D105*
X0143999Y0135999D03*
X0133999D03*
X0122999D03*
X0144999Y0167499D03*
X0133999D03*
G54D106*
X0122999Y0167499D03*
G54D107*
X0118249Y0140749D03*
G54D108*
X0127499Y0147499D03*
G54D109*
X0156499Y0176499D03*
X0098499D03*
X0156499Y0103499D03*
X0098499D03*
G54D110*
X0133699Y0122549D03*
Y0132549D03*
X0123699D03*
Y0122549D03*
G54D111*
X0128701Y0151595D03*
X0128301Y0152195D03*
M02*